<svg id="ed3UtwEjhWm1" xmlns="http://www.w3.org/2000/svg" xmlns:xlink="http://www.w3.org/1999/xlink" viewBox="0 0 161 45" shape-rendering="geometricPrecision" text-rendering="geometricPrecision" project-id="909b49673ef34708a84ad1c6a01dd54a" export-id="24075156c340473987454cda21fc7c48" cached="false"><g transform="matrix(.7 0 0 0.7 24.048799 6.675349)"><g transform="translate(.162663 0)"><g><path d="M39.447087,13.555495c0,1.728191-.575602,2.592286-1.510956,3.096342-3.165812,1.656183-6.331624,3.312365-9.569387,4.968548-.215851.072008-.431701.216024-.647552.216024-.719503.216024-1.151205-.072008-1.079254-.864095.07195-.504056.215851-1.008112.359751-1.512167c1.798757-5.328588,3.597514-10.657176,5.468221-15.913756.143901-.432047.647553-1.080119,1.007304-1.080119.359751-.072008.863403.432048,1.079254.864095c1.223155,2.44827,2.44631,4.968548,3.597514,7.488827.575602,1.080119,1.007304,2.160238,1.295105,2.736301Z" fill="#fff"/><path d="M37.864181,29.397243c-.863403-.288032-2.086558-.576064-3.237763-.936103-2.446309-.792088-4.892618-1.512167-7.266978-2.376262-.575602-.216024-1.007303-.72008-1.510955-1.08012.431701-.432047.791453-1.008111,1.295105-1.296143c5.25237-2.592285,10.50474-5.184572,15.82906-7.776857.359752-.144016.935354-.144016,1.223155.072007.215851.216024.359752.792088.287801,1.152128-.359751,1.36815-.863403,2.736301-1.295105,4.104452-.719502,1.944215-1.439005,3.960437-2.158508,5.904652-.503652,1.368151-1.582906,2.232246-3.165812,2.232246Z" fill="#fff"/><path d="M30.956954,39.406347c-1.726806,0-2.518259-.504056-3.093862-1.512167-1.726806-3.240357-3.381663-6.480715-5.036519-9.721072-.215851-.36004-.287801-1.152127-.07195-1.296143.287801-.288032,1.007304-.288032,1.367055-.144016c4.173116,1.368151,8.346232,2.80831,12.591298,4.176461c1.439006.504055,2.806061.936103,4.173116,1.512167.431702.216023,1.151205.648071,1.151205.936103-.07195.432048-.503652,1.008111-.935354,1.224135-2.446309,1.224135-4.964569,2.44827-7.482828,3.600397-1.007304.504056-2.086559.936103-2.662161,1.224135Z" fill="#fff"/><path d="M13.832788,4.770526c1.151205,0,1.942658.576064,2.44631,1.512167c1.726807,3.240358,3.453613,6.552723,5.10847,9.865088.1439.36004.21585,1.008112.07195,1.152128-.215851.216023-.863404.360039-1.223155.216023-3.021912-.936103-6.043823-1.944214-9.065735-2.952325-2.73411-.864096-5.39627-1.800199-8.058431-2.80831-.431701-.144016-.935353-.576064-1.007304-1.008111-.07195-.288032.431702-.864096.791453-1.08012C6.134109,8.082892,9.371871,6.498717,12.681584,4.98655c.287801-.144016.719503-.144016,1.151204-.216024Z" fill="#fff"/><path d="M4.767054,30.405354c.07195-1.152127.647552-2.016222,1.582906-2.520278c3.165812-1.656183,6.331624-3.312365,9.569387-4.89654.431701-.216024,1.007303-.144016,1.510955-.216024c0,.576064.215851,1.152127.071951,1.656183-.935354,2.952326-1.942658,5.904651-2.949962,8.856977-.935353,2.664294-1.798757,5.25658-2.80606,7.848866-.143901.360039-.575603.936103-.935354.936103s-.863403-.432048-1.079254-.792087c-.863404-1.584175-1.582906-3.240358-2.374359-4.824533-.719503-1.512166-1.510956-3.024333-2.158509-4.608508-.1439-.432048-.287801-.936103-.431701-1.440159Z" fill="#fff"/><path d="M28.510645,43.438792c0,.792087-.431702,1.224135-1.223155,1.008111-1.151204-.288032-2.302409-.720079-3.453613-1.080119-2.086558-.720079-4.173116-1.512167-6.331624-2.232246-2.44631-.864096-3.021912-2.088231-2.230459-4.536501c1.007304-3.024333,1.870707-6.120675,2.949961-9.145009.215851-.576063.719503-1.080119,1.007304-1.584174.431702.432047,1.079254.864095,1.367055,1.368151c2.59021,5.184572,5.10847,10.369144,7.69868,15.553715.143901.288032.215851.504056.215851.648072Z" fill="#fff"/><path d="M6.709711,14.851638c.791453.216024,1.942658.576064,3.165812,1.008112c2.44631.792087,4.892619,1.512166,7.266978,2.304254.575602.216024,1.007304.648071,1.510956,1.008111-.431702.432048-.791453,1.080119-1.367055,1.368151-4.676768,2.376262-9.353536,4.608508-14.030304,6.912762-.575602.288032-1.151205.576064-1.798757.792088-.359751.144016-.863403.216024-1.079254,0-.287801-.216024-.431702-.792088-.359752-1.152127.287801-1.152127.647553-2.304254,1.079255-3.456382.791453-2.232246,1.582906-4.464492,2.374359-6.62473.503652-1.368151,1.510955-2.160239,3.237762-2.160239Z" fill="#fff"/><path d="M29.374048,6.858757c-.215851.720079-.575602,1.872206-.935353,3.024333-.791453,2.44827-1.582906,4.89654-2.374359,7.344811-.215851.504055-.647553.936103-1.007304,1.440158-.431702-.432047-1.079255-.720079-1.295105-1.224135-2.158509-4.248468-4.245067-8.568945-6.331625-12.817414-.503652-1.008111-1.007304-2.016222-1.439005-3.024333-.143901-.36004-.215851-.936104,0-1.152127.287801-.36004.863403-.504056,1.295105-.432048c1.007304.216024,2.014608.648071,3.021911,1.008111c2.37436.792088,4.676768,1.656183,7.051127,2.520278c1.367056.504056,2.086559,1.440159,2.014608,3.312366Z" fill="#fff"/></g><path d="M160,35.878648c-.2712.209961-.577394.341187-.901084.441794-.406801.126852-.822349.205587-1.246646.240581-.463665.039367-.922956.043742-1.382246-.004375-.376181-.039367-.739239-.122477-1.089175-.262451-.678001-.266826-1.181033-.734865-1.504724-1.38662-.043742-.087484-.078735-.183717-.122477-.275575-.021871-.043742-.048116-.08311-.08311-.1356-.069987.048116-.131226.087484-.18809.1356-.608014.524904-1.286014.944827-2.007756,1.290388-.590517.279949-1.207279.459291-1.85466.559897-.817974.126852-1.640323.139974-2.462672.056865-.673626-.069987-1.325381-.231833-1.942143-.516155-1.342878-.616762-2.200221-1.644698-2.589524-3.066312-.183717-.669252-.231833-1.347252-.174968-2.038375.039368-.463665.118103-.914207.266826-1.356001.319316-.940452.89671-1.68844,1.68844-2.278956.546774-.402427,1.146039-.699872,1.789046-.922956.612387-.214335,1.242272-.358684,1.885278-.454916c1.264143-.188091,2.53266-.240581,3.805551-.161846.424297.026246.848594.026246,1.268517.08311.034994.004374.074361.004374.109355-.004374.021871-.004374.039368-.026245.048116-.048116s.013123-.048116.013123-.074361c0-.629885-.08311-1.242272-.293072-1.837163-.096232-.2712-.227458-.524903-.389303-.765484-.240581-.345562-.551149-.608013-.931704-.787356-.319316-.153096-.656129-.244955-1.001691-.284322-.398052-.048116-.796103-.056865-1.194155-.034994-1.259769.056865-2.467047.345562-3.652454.747988-.341187.118103-.678001.244955-1.019188.367432-.034993.013123-.078735-.017497-.08311-.05249-.004374-.026245-.008748-.048116-.008748-.074362c0-.048116,0-.100606,0-.148722c0-.809226,0-1.622827,0-2.432053c0-.061239.004374-.126852,0-.188091-.004374-.100606.05249-.161845.139974-.196839.069987-.030619.1356-.061238.205588-.087483.691123-.297446,1.408491-.503033,2.138981-.669252.57302-.126852,1.150414-.21871,1.736556-.275575.533652-.05249,1.071678-.05249,1.609705-.043742.485535.008749.971071.034994,1.456607.100607.643007.087484,1.277265.209961,1.889653.441794.686748.262451,1.299136.629884,1.810917,1.159162.32369.332438.586142.708619.800478,1.124168.301819.581768.48991,1.19853.608013,1.841537.122478.678.16622,1.360375.16622,2.047123-.004375,2.121486,0,4.242971,0,6.364456c0,.214335.008748.424297.048116.634258.087484.441794.349935.734865.747987.914207.104981.048116.209962.074362.328065.074362.524904.008748,1.045433-.021871,1.557214-.153097C160,34.282066,160,35.07817,160,35.878648Zm-6.657527-4.142364c0-.131226,0-.258077,0-.380555c0-.747987,0-1.495975,0-2.243962c0-.60364,0-.608014-.048116-.621136-.192464-.052491-.393677-.043742-.590516-.065613-.122478-.013123-.249329-.013123-.371807-.017497-.450542-.004374-.89671-.013123-1.347252-.017497-.463665-.004374-.922956.021871-1.382246.087484-.533652.074361-1.049807.209962-1.544092.433046-.249329.113729-.485535.253703-.695497.433045-.293071.244955-.524903.533652-.664878.887962-.24058.612387-.2712,1.242272-.083109,1.872156.183716.616761.564271,1.076052,1.163536,1.338504.253703.109355.520529.174968.796104.192464.48991.03062.971071-.004374,1.447858-.113729c1.001691-.227458,1.902776-.660503,2.725125-1.268517.201213-.153096.398052-.310568.59489-.516155Z" fill="#fff"/><path d="M114.928282,22.926653c0,4.277964,0,8.560302,0,12.838266c0,.516155.061239.463665-.450542.463665-.997317,0-1.994633,0-2.996324,0-.074362,0-.148723,0-.223084,0-.096233-.004374-.139975-.043742-.148723-.131226-.026245-.310568-.05249-.621136-.078735-.931704-.008749-.100606-.021871-.196839-.03062-.297445-.004374-.026245-.069987-.052491-.091858-.039368-.030619.017497-.065613.034994-.096232.056865-.892336.638632-1.885279,1.067303-2.935086,1.364749-.446168.126851-.89671.223084-1.356001.275574-.472413.05249-.944826.096232-1.417239.061239-.358684-.026245-.721743-.043742-1.080427-.100607-2.152104-.363058-3.827421-1.43911-4.964712-3.311266-.507407-.839846-.839846-1.749679-1.045433-2.707628-.214336-.992942-.262452-1.999007-.240581-3.013821.021871-1.041058.192465-2.060246.533652-3.04444.336813-.975446.826723-1.867782,1.495975-2.655137.730491-.857343,1.618452-1.509098,2.642014-1.977137.84422-.389304,1.732182-.62551,2.650763-.747988.769859-.100606,1.544092-.10498,2.31395-.056864.686749.043742,1.356001.18809,2.01213.398052.450543.144348.892336.314942,1.316633.524903.043742.021871.091859.034994.139975.039368.017496.004374.043742-.017497.05249-.034994.013123-.021871.013123-.048116.013123-.074361c0-.126852,0-.249329,0-.376181c0-3.131924,0-6.263849,0-9.395773c0-.524904-.065613-.459291.450542-.459291c1.049807-.004374,2.09524,0,3.145047,0c.087484,0,.174968,0,.262452.004374.069987.004374.109355.043742.113729.118104.004374.126851.004374.249329.004374.37618.008748,4.27359.008748,8.555928.008748,12.833892Zm-3.97177,4.382945c0-1.272891,0-2.541408,0-3.814299c0-.113729,0-.223084-.004374-.336813c0-.052491-.021871-.100607-.065613-.126852-.153097-.104981-.306194-.21871-.468039-.306194-.831097-.454916-1.719059-.730491-2.659511-.826723-.848594-.091858-1.692814-.008748-2.515163.236207-1.084801.32369-1.929021.966697-2.528285,1.92902-.358685.577394-.60364,1.19853-.747988,1.863408-.096232.450542-.144348.909833-.170594,1.369123-.048116.712994-.013122,1.421614.091858,2.125859.096233.660504.30182,1.286014.608014,1.876531.258077.48991.59489.918581,1.023562,1.272891.686748.568645,1.491601.839845,2.370814.905458.590516.043742,1.16791-.021871,1.74093-.174967c1.189781-.310568,2.243963-.887962,3.193163-1.657821.008749-.008748.017497-.017497.03062-.021871.061238-.048116.096232-.109355.096232-.192464-.004374-.100607,0-.201213,0-.297446.004374-1.277265.004374-2.550156.004374-3.823047Z" fill="#fff"/><path d="M71.593121,31.54382c0-.157471,0-.293072,0-.433046c0-3.766183,0-7.53674,0-11.302923c0-.126851.004374-.249329.004374-.376181c0-.048116.043742-.100606.091858-.100606.061239-.004374.122477-.008749.18809-.008749c1.14604,0,2.296453,0,3.442493,0c.074361,0,.148722.008749.223084.017497.013122.043742.030619.078736.034993.113729.004375.113729.004375.223084.004375.336813c0,5.327771,0,10.655542,0,15.983313c0,.100607,0,.201213-.004375.297446-.004374.113729-.043742.153097-.161845.157471-.039368,0-.074361,0-.113729,0-1.097923,0-2.195846,0-3.29377,0-.074361,0-.148722-.008749-.223084-.017497-.017496-.004374-.043742-.026245-.048116-.048116-.013122-.034994-.021871-.069987-.021871-.109355-.021871-.297445-.043742-.594891-.069987-.89671-.008748-.122478-.017497-.249329-.030619-.371807-.008749-.056865.008748-.131226-.065613-.153097-.056865-.017497-.087484.039368-.126852.065613-.166219.131226-.332439.266826-.498658.393678-1.027936.774232-2.182724,1.242271-3.451241,1.434736-.231833.034994-.472413.05249-.70862.056865-.940452.030619-1.867782-.048116-2.77324-.323691-.048116-.013122-.096233-.026245-.144349-.043742-1.356001-.450542-2.31395-1.338504-2.895718-2.63764-.262451-.586142-.424297-1.19853-.520529-1.828414-.096232-.616762-.131226-1.237898-.131226-1.863408c0-3.341886,0-6.688146,0-10.030032c0-.100606,0-.201213,0-.297445-.004374-.21871.034994-.236207.236207-.236207c1.172284,0,2.344569,0,3.516853,0c.048117,0,.100607.008749.148723.013123.043742.004374.061239.039368.074361.074361s.008749.074362.008749.109355c0,.113729,0,.223084,0,.336813c0,3.219409,0,6.438817,0,9.658226c0,.297445.008748.599264.026245.89671.021871.402426.100606.791729.227458,1.172284.08311.24933.192465.48991.328065.712994.367432.594891.89671.957949,1.579085,1.102298.454916.096232.914207.100606,1.377872.039368.726116-.091859,1.404117-.323691,2.051498-.664878.5424-.288697,1.045432-.634259,1.509097-1.032311.065613-.056864.126852-.118103.209962-.196838Z" fill="#fff"/><path d="M83.784005,24.011454c0,.139974-.004374.288697-.004374.441794c0,3.766183,0,7.53674,0,11.302923c0,.122477-.004374.249329-.008748.371806c0,.048116-.048116.091858-.100607.091858-.061238.004375-.122477.008749-.18809.008749-1.124168,0-2.243963,0-3.368131,0-.061239,0-.122478-.004374-.188091-.004374-.061238-.004375-.109354-.056865-.113729-.122478-.004374-.100606-.004374-.201213-.004374-.297445c0-5.349642,0-10.703658,0-16.0533c0-.468039-.048116-.419923.419923-.419923c1.023562,0,2.047124,0,3.070686,0c.087484,0,.174968,0,.262451.008748.034994.004374.074362.026245.078736.065613.017497.109355.034994.21871.043742.332439.030619.371807.056865.747988.08311,1.119794c0,.021871.017496.043742.026245.065613s.061239.008749.100606-.026245c.039368-.030619.074362-.065613.113729-.100606.389304-.336814.800478-.634259,1.246646-.887962.870465-.48991,1.797795-.800478,2.786363-.918581.345562-.043742.695498-.039368,1.045433-.039368.577394-.004374,1.14604.05249,1.710311.170593.48991.104981.962323.258078,1.412865.481162.769859.380555,1.373498.936078,1.837163,1.662195.332439.520529.564271,1.0848.721742,1.675317.126852.468039.205587.9492.253704,1.434736.048116.472413.056864.944826.056864,1.421614c0,3.320015,0,6.635655,0,9.95567c0,.113729,0,.223084,0,.336813-.004374.11373-.043742.153097-.161845.157472-.061239,0-.126852,0-.188091,0-1.097923,0-2.195846,0-3.293769,0-.074362,0-.148723-.004375-.223084-.004375-.048117,0-.100607-.043742-.100607-.091858-.004374-.074361-.008748-.148722-.008748-.223084c0-.511781,0-1.023562,0-1.535343c0-2.85635,0-5.7127,0-8.56905c0-.476787-.039368-.944826-.1356-1.412865-.074362-.35431-.192465-.695498-.367433-1.014814-.415548-.76111-1.06293-1.172284-1.911524-1.277265-.874839-.104981-1.714685.034993-2.528285.363058-.839846.341187-1.592207.826723-2.265834,1.430362-.034993.017497-.065613.056865-.109355.100607Z" fill="#fff"/><path d="M58.676119,9.624722c0,.091859,0,.179342,0,.266826c0,.87484,0,1.745305,0,2.620144c0,.074361-.008748.148723-.013122.223084c0,.026245-.056865.069987-.078736.065613-.170593-.030619-.341187-.069987-.516155-.096232-.441794-.069988-.887962-.122478-1.338504-.126852-.756736-.004374-1.272891.376181-1.60533,1.027936-.131226.258078-.201213.538026-.240581.822349-.043742.319316-.069987.643007-.069987.971071.004374,1.185408,0,2.370815.004374,3.556222c0,.100606.008749.196839.017497.297445c0,.017497.030619.043742.05249.048116.034994.013123.074362.017497.109355.017497.201213,0,.398052,0,.599265,0c.922956,0,1.845911,0,2.768866,0c.074362,0,.148723.008749.223084.013123.043742.004374.065613.039368.074362.074361.013122.034994.008748.074362.008748.109355c0,.76111,0,1.52222,0,2.283331c0,.039367-.004374.074361-.008748.113729-.004375.048116-.048116.100606-.091858.100606-.11373.004374-.223084.008749-.336814.008749-1.010439,0-2.020878,0-3.031318,0-.100606,0-.196838.004374-.297445.008748-.043742,0-.065613.034993-.078735.069987s-.008749.074361-.013123.109355c0,.113729,0,.223084,0,.336813c0,4.404816,0,8.805257,0,13.210073c0,.122477-.004374.249329-.008748.371806c0,.043742-.052491.087484-.100607.091858-.074361.004375-.148723.004375-.223084.004375-1.097923,0-2.195846,0-3.29377,0-.087484,0-.174967-.008749-.258077-.017497-.017497-.004374-.039368-.03062-.052491-.048116-.013122-.021871-.017496-.048117-.017496-.074362-.004375-.126851-.004375-.249329-.004375-.376181c0-4.404815,0-8.805257,0-13.210072c0-.1356-.004374-.275574-.013122-.411175c0-.017496-.026245-.048116-.048116-.05249-.061239-.013122-.122478-.017497-.183717-.017497-.647381,0-1.299136,0-1.946517,0-.275574,0-.546774,0-.822349-.004374-.043742,0-.096232-.048116-.100606-.091858-.004374-.034994-.008749-.074361-.008749-.113729c0-.774233,0-1.548466,0-2.318324c0-.034994.008749-.074361.021871-.109355.008749-.017497.03062-.043742.048117-.048116.087483-.008749.174967-.017497.258077-.017497.774233,0,1.548466,0,2.318324,0c.113729,0,.223084,0,.336813-.004374.087484,0,.131226-.048116.131226-.144349.004374-.113729.004374-.223084.004374-.336813c0-1.111046-.004374-2.222091,0-3.328763.004374-.774233.08311-1.544091.279949-2.296453.109355-.424297.258077-.835471.45929-1.220401.686749-1.312259,1.754053-2.14773,3.175667-2.537034.651755-.179342,1.325381-.249329,1.999008-.218709.586142.026245,1.163536.131225,1.727807.297445.074361.026245.122478.069987.183716.100606Z" fill="#fff"/><path d="M140.967872,34.828841c-.078735.104981-.183716.157471-.275574.214336-.730491.463664-1.517846.809226-2.344569,1.058555-.621136.188091-1.255394.306194-1.902776.389304-.546774.069987-1.093549.096232-1.644697.100606-1.027936.013123-2.038376-.104981-3.026944-.4068-2.173976-.664878-3.744312-2.029627-4.711009-4.085499-.332439-.704246-.551149-1.439111-.691123-2.204595-.161846-.887962-.179342-1.784672-.139975-2.685757.03062-.739239.139975-1.465356.35431-2.173975.796104-2.61577,2.453924-4.435435,5.012829-5.428378.769859-.297445,1.570337-.485536,2.388311-.590516.796104-.104981,1.592208-.118104,2.388311-.052491c1.124169.091858,2.222092.30182,3.271899.730491.415549.170594.817975.367433,1.202904.599265.08311.048116.126852.113729.122478.209961-.004375.201213,0,.398052,0,.599265c0,.774233,0,1.548466,0,2.322698c0,.087484-.004375.174968-.008749.262452c0,.03062-.056864.052491-.087484.034994-.034993-.017497-.065613-.03062-.100606-.052491-.109355-.061238-.214336-.126851-.323691-.18809-.782981-.446168-1.60533-.804852-2.475795-1.041059-.507407-.139974-1.019188-.231832-1.539717-.288697-.371807-.039367-.747987-.056864-1.119794-.05249-.643007.008748-1.268517.113729-1.872156.319316-1.010439.341188-1.784672.97982-2.331447,1.889653-.398052.660504-.647381,1.373498-.769858,2.130234-.061239.384929-.091858.769858-.109355,1.154787-.034994.826724.030619,1.644698.262452,2.445176.139974.481162.345561.936078.608013,1.360375.590516.940452,1.425988,1.55284,2.497666,1.841537.384929.10498.778607.166219,1.181033.179342.866091.021871,1.719059-.043742,2.563279-.240581.424297-.100606.839846-.240581,1.242272-.402426.708619-.284323,1.395368-.608013,2.060246-.97982.074361-.043742.153097-.078736.231832-.113729.026246-.013123.08311.021871.08311.048116.004374.048116.008749.100607.008749.148723c0,.922955,0,1.845911,0,2.768866c0,.069987-.004375.131226-.004375.179342Z" fill="#fff"/><path d="M119.180001,27.795134c0-2.66826,0-5.340894,0-8.009154c0-.524903-.069987-.45929.450542-.45929c1.058556-.004375,2.121485,0,3.180041,0c.087484,0,.174968.008748.258077.021871.017497.004374.039368.030619.048117.048116.013122.021871.013122.048116.017496.069987.004375.113729.004375.223084.004375.336813c0,5.314648,0,10.629297,0,15.943945c0,.122478-.004375.249329-.008749.371807c0,.043742-.05249.096232-.091858.100606-.048116.004375-.100606.008749-.148723.008749-1.159162,0-2.318324,0-3.48186,0-.048116,0-.100606,0-.148722-.013123-.03062-.008748-.065613-.048116-.065613-.078735-.013123-.109355-.013123-.223084-.013123-.336813c0-1.01044,0-2.020879,0-3.031318c0-1.657821,0-3.315641,0-4.973461Z" fill="#fff"/><path d="M121.144015,16.632185c-.57302-.008749-1.111046-.144349-1.587833-.472413-.314942-.21871-.555523-.498659-.682375-.866091-.174968-.498659-.179342-1.001691-.017496-1.504724.100606-.314942.293071-.573019.551148-.787355.323691-.2712.695497-.446168,1.102298-.524904.599265-.118103,1.189781-.091858,1.767175.122478.459291.170594.822349.454916,1.102297.861717.406801.590516.389304,1.421613.091859,1.959639-.258078.468039-.634259.796104-1.124169.997317-.384929.153097-.787355.227458-1.202904.214336Z" fill="#fff"/></g></g></svg>
