<?xml version="1.0" encoding="UTF-8"?>
<svg width="161px" height="45px" viewBox="0 0 161 45" version="1.1" xmlns="http://www.w3.org/2000/svg" xmlns:xlink="http://www.w3.org/1999/xlink">
    <title>Group 10</title>
    <g id="Newsletter-Assets" stroke="none" stroke-width="1" fill="none" fill-rule="evenodd">
        <g id="Group-10" transform="translate(0.162663, 0.000000)" fill-rule="nonzero">
            <g id="Group-5">
                <path d="M39.4470869,13.5554953 C39.4470869,15.283686 38.8714847,16.1477813 37.9361311,16.6518369 C34.770319,18.3080197 31.6045067,19.9642023 28.3667443,21.620385 C28.1508934,21.692393 27.9350427,21.8364089 27.7191918,21.8364089 C26.9996891,22.0524327 26.5679874,21.7644009 26.6399377,20.9723136 C26.7118879,20.4682579 26.8557885,19.9642023 26.9996891,19.4601467 C28.798446,14.1315589 30.5972028,8.80297109 32.46791,3.54639121 C32.6118106,3.11434356 33.1154626,2.46627206 33.4752139,2.46627206 C33.8349654,2.39426412 34.3386172,2.89831973 34.5544681,3.33036738 C35.7776227,5.77863746 37.0007775,8.29891549 38.1519819,10.8191935 C38.7275841,11.8993126 39.1592857,12.9794318 39.4470869,13.5554953 Z" id="Path" fill="#173352"/>
                <path d="M37.8641808,29.3972429 C37.0007775,29.1092112 35.7776227,28.8211794 34.6264184,28.4611396 C32.180109,27.6690523 29.7337995,26.9489729 27.3594404,26.0848776 C26.7838382,25.8688537 26.3521365,25.3647981 25.8484846,25.0047584 C26.2801863,24.5727107 26.6399377,23.9966472 27.1435897,23.7086154 C32.3959598,21.1163295 37.64833,18.5240434 42.9726504,15.9317575 C43.3324018,15.7877416 43.908004,15.7877416 44.1958051,16.0037654 C44.4116559,16.2197893 44.5555565,16.7958528 44.4836062,17.1558926 C44.1238549,18.5240434 43.6202029,19.8921944 43.1885013,21.2603454 C42.4689985,23.2045598 41.7494957,25.2207822 41.0299929,27.1649966 C40.5263411,28.5331476 39.4470869,29.3972429 37.8641808,29.3972429 Z" id="Path" fill="#173C63"/>
                <path d="M30.9569543,39.4063471 C29.2301476,39.4063471 28.4386946,38.9022914 27.8630924,37.8941803 C26.1362858,34.6538228 24.4814294,31.4134653 22.8265731,28.1731078 C22.6107222,27.8130682 22.5387719,27.0209808 22.7546228,26.8769649 C23.0424238,26.5889331 23.7619267,26.5889331 24.121678,26.732949 C28.294794,28.1011 32.46791,29.5412588 36.7129764,30.9094098 C38.1519819,31.4134653 39.5190372,31.845513 40.8860924,32.4215765 C41.3177941,32.6376004 42.0372968,33.069648 42.0372968,33.3576798 C41.9653466,33.7897275 41.5336449,34.365791 41.1019432,34.5818149 C38.6556338,35.8059499 36.1373742,37.0300849 33.6191145,38.182212 C32.6118106,38.6862677 31.5325564,39.1183153 30.9569543,39.4063471 Z" id="Path" fill="#26619F"/>
                <path d="M13.8327884,4.77052626 C14.9839929,4.77052626 15.7754459,5.3465898 16.2790978,6.28269306 C18.0059045,9.52305052 19.7327111,12.8354159 21.3875675,16.1477813 C21.531468,16.507821 21.6034183,17.1558926 21.4595177,17.2999085 C21.2436669,17.5159322 20.5961144,17.6599481 20.2363631,17.5159322 C17.2144514,16.579829 14.1925399,15.5717177 11.1706282,14.5636065 C8.43651772,13.6995112 5.7743575,12.763408 3.11219727,11.7552967 C2.68049561,11.6112808 2.17684367,11.1792332 2.1048934,10.7471855 C2.03294312,10.4591538 2.53659506,9.88309023 2.89634643,9.66706641 C6.13410887,8.08289165 9.37187132,6.4987169 12.6815841,4.98655009 C12.9693851,4.8425342 13.4010868,4.8425342 13.8327884,4.77052626 Z" id="Path" fill="#5EA1E9"/>
                <path d="M4.76705362,30.4053541 C4.8390039,29.253227 5.41460611,28.3891317 6.34995971,27.8850761 C9.51577188,26.2288934 12.6815841,24.5727107 15.9193465,22.988536 C16.3510481,22.7725121 16.9266504,22.8445201 17.4303023,22.7725121 C17.4303023,23.3485756 17.6461531,23.9246392 17.5022526,24.4286948 C16.566899,27.3810205 15.5595951,30.3333462 14.5522912,33.2856718 C13.6169376,35.9499658 12.7535343,38.5422518 11.7462305,41.1345377 C11.6023299,41.4945774 11.1706282,42.0706409 10.8108769,42.0706409 C10.4511254,42.0706409 9.94747357,41.6385933 9.7316227,41.2785536 C8.86821938,39.6943789 8.14871662,38.0381961 7.35726358,36.4540214 C6.63776081,34.9418546 5.84630777,33.4296877 5.19875528,31.845513 C5.05485473,31.4134653 4.91095418,30.9094098 4.76705362,30.4053541 Z" id="Path" fill="#368AE3"/>
                <path d="M28.5106449,43.4387919 C28.5106449,44.2308793 28.0789432,44.662927 27.2874901,44.4469031 C26.1362858,44.1588713 24.9850813,43.7268237 23.8338768,43.366784 C21.7473189,42.6467045 19.6607608,41.8546171 17.5022526,41.1345377 C15.0559432,40.2704424 14.4803409,39.0463073 15.271794,36.5980373 C16.2790978,33.5737036 17.1425011,30.4773621 18.2217553,27.4530284 C18.4376062,26.8769649 18.9412581,26.3729093 19.2290592,25.8688537 C19.6607608,26.3009013 20.3083134,26.732949 20.5961144,27.2370046 C23.1863244,32.4215765 25.7045841,37.6061485 28.294794,42.7907204 C28.4386946,43.0787522 28.5106449,43.294776 28.5106449,43.4387919 Z" id="Path" fill="#26619F"/>
                <path d="M6.70971109,14.8516383 C7.50116413,15.0676622 8.65236856,15.4277018 9.87552328,15.8597495 C12.3218327,16.6518369 14.768142,17.3719163 17.1425011,18.1640038 C17.7181034,18.3800275 18.149805,18.8120752 18.653457,19.172115 C18.2217553,19.6041626 17.8620039,20.2522341 17.2864017,20.5402658 C12.6096338,22.916528 7.93286579,25.1487743 3.25609782,27.4530284 C2.68049561,27.7410602 2.1048934,28.029092 1.4573409,28.2451158 C1.09758953,28.3891317 0.593937588,28.4611396 0.378086759,28.2451158 C0.0902856529,28.029092 -0.0536149,27.4530284 0.0183353765,27.0929888 C0.306136482,25.9408617 0.665887865,24.7887345 1.09758953,23.6366074 C1.88904256,21.4043612 2.68049561,19.172115 3.47194865,17.0118767 C3.97560059,15.6437257 4.98290445,14.8516383 6.70971109,14.8516383 Z" id="Path" fill="#368AE3"/>
                <path d="M29.3740482,6.85875661 C29.1581973,7.57883605 28.798446,8.73096314 28.4386946,9.88309023 C27.6472415,12.3313604 26.8557885,14.7796304 26.0643355,17.2279005 C25.8484846,17.7319561 25.416783,18.1640038 25.0570316,18.6680593 C24.6253299,18.2360117 23.9777774,17.9479799 23.7619267,17.4439243 C21.6034183,13.1954557 19.5168603,8.87497903 17.4303023,4.62651037 C16.9266504,3.61839916 16.4229984,2.61028795 15.9912968,1.60217674 C15.8473962,1.24213703 15.7754459,0.666073477 15.9912968,0.450049647 C16.2790978,0.0900099293 16.8547001,-0.0540059576 17.2864017,0.0180019859 C18.2937056,0.234025816 19.3010095,0.666073477 20.3083134,1.02611319 C22.6826725,1.81820057 24.9850813,2.68229589 27.3594404,3.54639121 C28.7264957,4.05044682 29.4459985,4.98655009 29.3740482,6.85875661 Z" id="Path" fill="#5EA1E9"/>
            </g>
            <path d="M160,35.878648 C159.7288,36.0886094 159.422606,36.2198353 159.098916,36.3204418 C158.692115,36.4472935 158.276567,36.5260291 157.85227,36.5610226 C157.388605,36.6003904 156.929314,36.6047646 156.470024,36.5566484 C156.093843,36.5172807 155.730785,36.4341709 155.380849,36.2941967 C154.702848,36.0273707 154.199816,35.5593317 153.876125,34.9075765 C153.832383,34.8200925 153.79739,34.7238602 153.753648,34.6320021 C153.731777,34.5882601 153.705532,34.5488924 153.670538,34.496402 C153.600551,34.5445182 153.539312,34.583886 153.482448,34.6320021 C152.874434,35.1569057 152.196434,35.5768285 151.474692,35.92239 C150.884175,36.2023385 150.267413,36.3816806 149.620032,36.4822871 C148.802058,36.6091388 147.979709,36.6222614 147.15736,36.5391517 C146.483734,36.4691645 145.831979,36.3073193 145.215217,36.0229965 C143.872339,35.4062348 143.014996,34.3782987 142.625693,32.956685 C142.441976,32.2874329 142.39386,31.6094325 142.450725,30.9183095 C142.490093,30.4546447 142.568828,30.0041025 142.717551,29.5623087 C143.036867,28.6218565 143.614261,27.873869 144.405991,27.2833525 C144.952765,26.8809264 145.55203,26.5834811 146.195037,26.3603971 C146.807424,26.1460615 147.437309,26.001713 148.080315,25.9054807 C149.344458,25.7173903 150.612975,25.6648999 151.885866,25.7436354 C152.310163,25.7698806 152.73446,25.7698806 153.154383,25.8267452 C153.189377,25.8311194 153.228744,25.8311194 153.263738,25.822371 C153.285609,25.8179968 153.303106,25.7961258 153.311854,25.7742548 C153.320602,25.7523838 153.324977,25.7261386 153.324977,25.6998935 C153.324977,25.0700092 153.241867,24.4576218 153.031905,23.8627311 C152.935673,23.5915309 152.804447,23.3378275 152.642602,23.0972467 C152.402021,22.7516852 152.091453,22.4892335 151.710898,22.3098914 C151.391582,22.1567945 151.054769,22.0649364 150.709207,22.0255687 C150.311155,21.9774525 149.913104,21.9687041 149.515052,21.9905751 C148.255283,22.0474396 147.048005,22.3361366 145.862598,22.7385626 C145.521411,22.8566659 145.184597,22.9835176 144.84341,23.1059951 C144.808417,23.1191177 144.764675,23.0884983 144.7603,23.0535048 C144.755926,23.0272596 144.751552,23.0053886 144.751552,22.9791434 C144.751552,22.9310273 144.751552,22.8785369 144.751552,22.8304208 C144.751552,22.0211945 144.751552,21.207594 144.751552,20.3983677 C144.751552,20.3371289 144.755926,20.271516 144.751552,20.2102772 C144.747178,20.1096707 144.804042,20.048432 144.891526,20.0134384 C144.961513,19.982819 145.027126,19.9521997 145.097114,19.9259545 C145.788237,19.6285091 146.505605,19.4229219 147.236095,19.2567025 C147.809115,19.1298508 148.386509,19.0379927 148.972651,18.9811281 C149.506303,18.9286378 150.044329,18.9286378 150.582356,18.9373861 C151.067891,18.9461345 151.553427,18.9723797 152.038963,19.0379927 C152.68197,19.1254766 153.316228,19.2479541 153.928616,19.4797865 C154.615364,19.7422382 155.227752,20.1096707 155.739533,20.6389485 C156.063223,20.9713874 156.325675,21.3475683 156.540011,21.7631169 C156.84183,22.344885 157.029921,22.9616466 157.148024,23.6046535 C157.270502,24.2826539 157.314244,24.9650285 157.314244,25.6517773 C157.309869,27.7732625 157.314244,29.8947476 157.314244,32.0162328 C157.314244,32.2305684 157.322992,32.4405298 157.36236,32.6504912 C157.449844,33.092285 157.712295,33.3853562 158.110347,33.5646982 C158.215328,33.6128144 158.320309,33.6390596 158.438412,33.6390596 C158.963316,33.647808 159.483845,33.6171886 159.995626,33.4859627 C160,34.2820664 160,35.0781701 160,35.878648 Z M153.342473,31.7362842 C153.342473,31.6050583 153.342473,31.4782067 153.342473,31.3557292 C153.342473,30.6077416 153.342473,29.8597541 153.342473,29.1117665 C153.342473,28.5081274 153.342473,28.5037532 153.294357,28.4906306 C153.101893,28.4381403 152.90068,28.4468887 152.703841,28.4250177 C152.581363,28.4118951 152.454512,28.4118951 152.332034,28.4075209 C151.881492,28.4031467 151.435324,28.3943983 150.984782,28.3900241 C150.521117,28.3856499 150.061826,28.4118951 149.602536,28.4775081 C149.068884,28.5518694 148.552729,28.6874695 148.058444,28.9105535 C147.809115,29.0242826 147.572909,29.1642569 147.362947,29.3435989 C147.069876,29.5885539 146.838044,29.8772508 146.698069,30.2315607 C146.457489,30.8439482 146.426869,31.4738325 146.61496,32.1037167 C146.798676,32.7204784 147.179231,33.179769 147.778496,33.4422207 C148.032199,33.5515756 148.299025,33.6171886 148.5746,33.6346854 C149.06451,33.6653048 149.545671,33.6303112 150.022458,33.5209563 C151.024149,33.2934981 151.925234,32.8604527 152.747583,32.2524394 C152.948796,32.0993425 153.145635,31.9418714 153.342473,31.7362842 Z" id="Shape" fill="#122E4B"/>
            <path d="M114.928282,22.9266531 C114.928282,27.204617 114.928282,31.486955 114.928282,35.7649189 C114.928282,36.2810741 114.989521,36.2285837 114.47774,36.2285837 C113.480423,36.2285837 112.483107,36.2285837 111.481416,36.2285837 C111.407054,36.2285837 111.332693,36.2285837 111.258332,36.2285837 C111.162099,36.2242095 111.118357,36.1848418 111.109609,36.0973578 C111.083364,35.7867899 111.057119,35.476222 111.030874,35.165654 C111.022125,35.0650475 111.009003,34.9688152 111.000254,34.8682087 C110.99588,34.8419635 110.930267,34.8157184 110.908396,34.8288409 C110.877777,34.8463377 110.842783,34.8638345 110.812164,34.8857055 C109.919828,35.5243381 108.926885,35.9530094 107.877078,36.2504547 C107.43091,36.3773064 106.980368,36.4735387 106.521077,36.5260291 C106.048664,36.5785194 105.576251,36.6222614 105.103838,36.5872678 C104.745154,36.5610226 104.382095,36.5435259 104.023411,36.4866613 C101.871307,36.123603 100.19599,35.0475508 99.0586985,33.1753948 C98.5512918,32.3355491 98.2188529,31.4257163 98.0132657,30.4677673 C97.79893,29.4748248 97.7508139,28.4687597 97.7726849,27.4539461 C97.7945558,26.4128875 97.9651495,25.3936997 98.3063368,24.4095056 C98.6431499,23.4340598 99.1330599,22.5417238 99.8023119,21.7543685 C100.532803,20.897026 101.420764,20.2452708 102.444326,19.7772318 C103.288546,19.3879284 104.176508,19.1517218 105.095089,19.0292443 C105.864948,18.9286378 106.639181,18.9242636 107.409039,18.9723797 C108.095788,19.0161217 108.76504,19.1604702 109.421169,19.3704316 C109.871712,19.51478 110.313505,19.6853737 110.737802,19.8953351 C110.781544,19.9172061 110.829661,19.9303287 110.877777,19.9347029 C110.895273,19.9390771 110.921519,19.9172061 110.930267,19.8997093 C110.94339,19.8778383 110.94339,19.8515932 110.94339,19.825348 C110.94339,19.6984963 110.94339,19.5760188 110.94339,19.4491671 C110.94339,16.3172426 110.94339,13.1853181 110.94339,10.0533937 C110.94339,9.52849012 110.877777,9.59410306 111.393932,9.59410306 C112.443739,9.58972887 113.489172,9.59410306 114.538979,9.59410306 C114.626463,9.59410306 114.713947,9.59410306 114.801431,9.59847726 C114.871418,9.60285146 114.910786,9.64221922 114.91516,9.71658056 C114.919534,9.84343225 114.919534,9.96590974 114.919534,10.0927614 C114.928282,14.3663511 114.928282,18.6486892 114.928282,22.9266531 Z M110.956512,27.3095977 C110.956512,26.0367066 110.956512,24.7681897 110.956512,23.4952986 C110.956512,23.3815695 110.956512,23.2722146 110.952138,23.1584855 C110.952138,23.1059951 110.930267,23.057879 110.886525,23.0316338 C110.733428,22.9266531 110.580331,22.812924 110.418486,22.7254401 C109.587389,22.2705237 108.699427,21.9949493 107.758975,21.898717 C106.910381,21.8068589 106.066161,21.8899686 105.243812,22.1349236 C104.159011,22.4586141 103.314791,23.1016209 102.715527,24.0639441 C102.356842,24.641338 102.111887,25.2624739 101.967539,25.9273517 C101.871307,26.3778939 101.823191,26.8371845 101.796945,27.2964751 C101.748829,28.0094691 101.783823,28.7180888 101.888803,29.4223344 C101.985036,30.0828381 102.190623,30.7083481 102.496817,31.2988646 C102.754894,31.7887746 103.091707,32.2174458 103.520379,32.5717557 C104.207127,33.1404012 105.01198,33.4116014 105.891193,33.4772143 C106.481709,33.5209563 107.059103,33.4553433 107.632123,33.3022465 C108.821904,32.9916785 109.876086,32.4142846 110.825286,31.6444261 C110.834035,31.6356777 110.842783,31.6269293 110.855906,31.6225551 C110.917144,31.574439 110.952138,31.5132002 110.952138,31.4300905 C110.947764,31.329484 110.952138,31.2288775 110.952138,31.1326452 C110.956512,29.8553799 110.956512,28.5824888 110.956512,27.3095977 Z" id="Shape" fill="#122E4B"/>
            <path d="M71.5931206,31.5438196 C71.5931206,31.3863485 71.5931206,31.2507484 71.5931206,31.1107742 C71.5931206,27.3445912 71.5931206,23.5740341 71.5931206,19.8078512 C71.5931206,19.6809995 71.5974948,19.558522 71.5974948,19.4316703 C71.5974948,19.3835542 71.6412368,19.3310638 71.6893529,19.3310638 C71.7505917,19.3266896 71.8118304,19.3223154 71.8774434,19.3223154 C73.0234828,19.3223154 74.1738964,19.3223154 75.3199358,19.3223154 C75.3942971,19.3223154 75.4686584,19.3310638 75.5430198,19.3398122 C75.5561424,19.3835542 75.5736391,19.4185477 75.5780133,19.4535413 C75.5823875,19.5672704 75.5823875,19.6766253 75.5823875,19.7903544 C75.5823875,25.1181254 75.5823875,30.4458963 75.5823875,35.7736673 C75.5823875,35.8742738 75.5823875,35.9748803 75.5780133,36.0711127 C75.5736391,36.1848418 75.5342714,36.2242095 75.4161681,36.2285837 C75.3768003,36.2285837 75.3418067,36.2285837 75.302439,36.2285837 C74.2045157,36.2285837 73.1065925,36.2285837 72.0086692,36.2285837 C71.9343079,36.2285837 71.8599466,36.2198353 71.7855852,36.2110869 C71.7680885,36.2067127 71.7418433,36.1848418 71.7374691,36.1629708 C71.7243465,36.1279772 71.7155981,36.0929836 71.7155981,36.0536159 C71.6937271,35.7561705 71.6718561,35.4587252 71.645611,35.1569057 C71.6368626,35.0344282 71.6281142,34.9075765 71.6149916,34.785099 C71.6062432,34.7282344 71.62374,34.6538731 71.5493786,34.6320021 C71.4925141,34.6145053 71.4618947,34.6713699 71.422527,34.6976151 C71.2563075,34.8288409 71.090088,34.964441 70.9238686,35.0912927 C69.8959325,35.8655254 68.7411447,36.3335644 67.4726278,36.5260291 C67.2407954,36.5610226 67.0002146,36.5785194 66.764008,36.5828936 C65.8235558,36.613513 64.8962262,36.5347775 63.9907676,36.2592031 C63.9426515,36.2460805 63.8945353,36.2329579 63.8464191,36.2154611 C62.4904183,35.7649189 61.5324693,34.8769571 60.9507013,33.5778208 C60.6882495,32.9916785 60.5264042,32.3792911 60.4301719,31.7494068 C60.3339396,31.1326452 60.298946,30.5115093 60.298946,29.8859992 C60.298946,26.5441133 60.298946,23.1978532 60.298946,19.8559673 C60.298946,19.7553608 60.298946,19.6547543 60.298946,19.558522 C60.2945718,19.3398122 60.3339396,19.3223154 60.5351526,19.3223154 C61.7074372,19.3223154 62.8797218,19.3223154 64.0520064,19.3223154 C64.1001225,19.3223154 64.1526129,19.3310638 64.200729,19.335438 C64.244471,19.3398122 64.2619678,19.3748058 64.2750904,19.4097993 C64.288213,19.4447929 64.2838388,19.4841607 64.2838388,19.5191542 C64.2838388,19.6328833 64.2838388,19.7422382 64.2838388,19.8559673 C64.2838388,23.0753758 64.2838388,26.2947842 64.2838388,29.5141926 C64.2838388,29.8116379 64.2925871,30.1134574 64.3100839,30.4109028 C64.3319549,30.8133288 64.4106904,31.2026323 64.5375421,31.5831874 C64.6206519,31.8325165 64.7300068,32.0730973 64.8656068,32.2961813 C65.2330393,32.891072 65.7623171,33.2541303 66.4446917,33.3984788 C66.8996081,33.4947111 67.3588987,33.4990853 67.8225635,33.4378465 C68.54868,33.3459884 69.2266805,33.114156 69.8740615,32.7729687 C70.4164618,32.4842718 70.9194944,32.1387103 71.3831592,31.7406584 C71.4487721,31.6837939 71.5100109,31.6225551 71.5931206,31.5438196 Z" id="Path" fill="#122E4B"/>
            <path d="M83.7840054,24.0114537 C83.7840054,24.151428 83.7796312,24.3001507 83.7796312,24.4532476 C83.7796312,28.2194305 83.7796312,31.9899876 83.7796312,35.7561705 C83.7796312,35.878648 83.775257,36.0054997 83.7708828,36.1279772 C83.7708828,36.1760934 83.7227667,36.2198353 83.6702763,36.2198353 C83.6090376,36.2242095 83.5477988,36.2285837 83.4821859,36.2285837 C82.3580175,36.2285837 81.2382232,36.2285837 80.1140548,36.2285837 C80.0528161,36.2285837 79.9915773,36.2242095 79.9259644,36.2242095 C79.8647256,36.2198353 79.8166095,36.167345 79.8122353,36.101732 C79.8078611,36.0011255 79.8078611,35.900519 79.8078611,35.8042867 C79.8078611,30.4546447 79.8078611,25.1006286 79.8078611,19.7509866 C79.8078611,19.2829476 79.7597449,19.3310638 80.2277839,19.3310638 C81.2513458,19.3310638 82.2749077,19.3310638 83.2984696,19.3310638 C83.3859536,19.3310638 83.4734375,19.3310638 83.5609214,19.3398122 C83.595915,19.3441864 83.6352827,19.3660574 83.6396569,19.4054251 C83.6571537,19.51478 83.6746505,19.6241349 83.6833989,19.7378641 C83.7140183,20.1096707 83.7402635,20.4858516 83.7665086,20.8576583 C83.7665086,20.8795293 83.7840054,20.9014002 83.7927538,20.9232712 C83.8015022,20.9451422 83.8539926,20.9320196 83.8933603,20.897026 C83.9327281,20.8664067 83.9677217,20.8314131 84.0070894,20.7964195 C84.3963929,20.4596064 84.8075673,20.1621611 85.2537353,19.9084577 C86.1242004,19.4185477 87.05153,19.1079798 88.0400983,18.9898765 C88.3856598,18.9461345 88.7355955,18.9505087 89.0855312,18.9505087 C89.6629251,18.9461345 90.2315706,19.0029991 90.7958419,19.1211024 C91.2857519,19.2260831 91.7581651,19.37918 92.2087073,19.602264 C92.9785658,19.982819 93.5822049,20.538342 94.0458697,21.2644585 C94.3783086,21.7849879 94.610141,22.3492592 94.7676121,22.9397757 C94.8944638,23.4078147 94.9731993,23.8889762 95.0213155,24.374512 C95.0694316,24.8469252 95.07818,25.3193384 95.07818,25.7961258 C95.07818,29.1161407 95.07818,32.4317814 95.07818,35.7517963 C95.07818,35.8655254 95.07818,35.9748803 95.07818,36.0886094 C95.0738058,36.2023385 95.034438,36.2417063 94.9163347,36.2460805 C94.855096,36.2460805 94.7894831,36.2460805 94.7282443,36.2460805 C93.6303211,36.2460805 92.5323978,36.2460805 91.4344746,36.2460805 C91.3601132,36.2460805 91.2857519,36.2417063 91.2113906,36.2417063 C91.1632744,36.2417063 91.110784,36.1979644 91.110784,36.1498482 C91.1064099,36.0754869 91.1020357,36.0011255 91.1020357,35.9267642 C91.1020357,35.4149832 91.1020357,34.9032023 91.1020357,34.3914213 C91.1020357,31.5350712 91.1020357,28.6787211 91.1020357,25.822371 C91.1020357,25.3455836 91.0626679,24.8775446 90.9664356,24.4095056 C90.8920742,24.0551957 90.7739709,23.7140084 90.5990031,23.3946921 C90.1834545,22.6335819 89.5360734,22.2224075 88.6874794,22.1174268 C87.8126401,22.0124461 86.9727944,22.1524204 86.159194,22.4804851 C85.3193483,22.8216724 84.5669865,23.3072081 83.8933603,23.9108472 C83.8583667,23.928344 83.8277474,23.9677118 83.7840054,24.0114537 Z" id="Path" fill="#122E4B"/>
            <path d="M58.6761192,9.62472244 C58.6761192,9.71658056 58.6761192,9.80406448 58.6761192,9.8915484 C58.6761192,10.7663876 58.6761192,11.6368527 58.6761192,12.5116919 C58.6761192,12.5860533 58.6673708,12.6604146 58.6629966,12.7347759 C58.6629966,12.7610211 58.6061321,12.8047631 58.5842611,12.8003889 C58.4136675,12.7697695 58.2430738,12.7304017 58.068106,12.7041566 C57.6263121,12.6341694 57.1801441,12.5816791 56.7296019,12.5773049 C55.972866,12.5729307 55.4567108,12.9534857 55.1242719,13.605241 C54.993046,13.8633186 54.9230589,14.1432671 54.8836911,14.4275899 C54.8399492,14.7469062 54.813704,15.0705967 54.813704,15.3986614 C54.8180782,16.5840686 54.813704,17.7694758 54.8180782,18.9548829 C54.8180782,19.0554894 54.8268266,19.1517218 54.835575,19.2523283 C54.835575,19.2698251 54.8661943,19.2960702 54.8880653,19.3004444 C54.9230589,19.313567 54.9624267,19.3179412 54.9974202,19.3179412 C55.1986332,19.3179412 55.3954721,19.3179412 55.5966851,19.3179412 C56.5196405,19.3179412 57.4425959,19.3179412 58.3655513,19.3179412 C58.4399126,19.3179412 58.514274,19.3266896 58.5886353,19.3310638 C58.6323773,19.335438 58.6542482,19.3704316 58.6629966,19.4054251 C58.6761192,19.4404187 58.671745,19.4797865 58.671745,19.51478 C58.671745,20.2758902 58.671745,21.0370003 58.671745,21.7981105 C58.671745,21.8374782 58.6673708,21.8724718 58.6629966,21.9118396 C58.6586224,21.9599557 58.6148805,22.0124461 58.5711385,22.0124461 C58.4574094,22.0168203 58.3480545,22.0211945 58.2343254,22.0211945 C57.2238861,22.0211945 56.2134468,22.0211945 55.2030074,22.0211945 C55.1024009,22.0211945 55.0061686,22.0255687 54.9055621,22.0299429 C54.8618201,22.0299429 54.8399492,22.0649364 54.8268266,22.09993 C54.813704,22.1349236 54.8180782,22.1742913 54.813704,22.2092849 C54.813704,22.323014 54.813704,22.4323689 54.813704,22.546098 C54.813704,26.9509136 54.813704,31.351355 54.813704,35.7561705 C54.813704,35.878648 54.8093298,36.0054997 54.8049556,36.1279772 C54.8049556,36.1717192 54.7524652,36.2154611 54.7043491,36.2198353 C54.6299877,36.2242095 54.5556264,36.2242095 54.4812651,36.2242095 C53.3833418,36.2242095 52.2854186,36.2242095 51.1874953,36.2242095 C51.1000114,36.2242095 51.0125275,36.2154611 50.9294178,36.2067127 C50.911921,36.2023385 50.89005,36.1760934 50.8769274,36.1585966 C50.8638048,36.1367256 50.8594306,36.1104804 50.8594306,36.0842352 C50.8550564,35.9573836 50.8550564,35.8349061 50.8550564,35.7080544 C50.8550564,31.3032388 50.8550564,26.9027974 50.8550564,22.4979819 C50.8550564,22.3623818 50.8506822,22.2224075 50.8419338,22.0868074 C50.8419338,22.0693106 50.8156887,22.0386913 50.7938177,22.0343171 C50.7325789,22.0211945 50.6713402,22.0168203 50.6101014,22.0168203 C49.9627204,22.0168203 49.3109652,22.0168203 48.6635841,22.0168203 C48.3880098,22.0168203 48.1168096,22.0168203 47.8412352,22.0124461 C47.7974933,22.0124461 47.7450029,21.9643299 47.7406287,21.920588 C47.7362545,21.8855944 47.7318803,21.8462266 47.7318803,21.8068589 C47.7318803,21.0326261 47.7318803,20.2583934 47.7318803,19.4885349 C47.7318803,19.4535413 47.7406287,19.4141735 47.7537513,19.37918 C47.7624997,19.3616832 47.7843707,19.335438 47.8018675,19.3310638 C47.8893514,19.3223154 47.9768353,19.313567 48.059945,19.313567 C48.8341778,19.313567 49.6084105,19.313567 50.378269,19.313567 C50.4919981,19.313567 50.601353,19.313567 50.7150821,19.3091928 C50.8025661,19.3091928 50.846308,19.2610767 50.846308,19.1648443 C50.8506822,19.0511152 50.8506822,18.9417603 50.8506822,18.8280312 C50.8506822,17.7169854 50.846308,16.6059396 50.8506822,15.4992679 C50.8550564,14.7250352 50.933792,13.9551767 51.1306308,13.2028149 C51.2399857,12.7785179 51.3887084,12.3673435 51.5899214,11.9824142 C52.2766702,10.6701553 53.3439741,9.83468385 54.7655878,9.44538039 C55.4173431,9.26603835 56.0909693,9.19605121 56.7645955,9.22667058 C57.3507378,9.25291576 57.9281317,9.35789647 58.492403,9.52411592 C58.5667643,9.5503611 58.6148805,9.59410306 58.6761192,9.62472244 Z" id="Path" fill="#122E4B"/>
            <path d="M140.967872,34.8288409 C140.889137,34.9338216 140.784156,34.986312 140.692298,35.0431766 C139.961807,35.5068414 139.174452,35.8524029 138.347729,36.101732 C137.726593,36.2898225 137.092335,36.4079258 136.444953,36.4910355 C135.898179,36.5610226 135.351404,36.5872678 134.800256,36.591642 C133.77232,36.6047646 132.76188,36.4866613 131.773312,36.1848418 C129.599336,35.5199639 128.029,34.1552147 127.062303,32.0993425 C126.729864,31.3950969 126.511154,30.660232 126.37118,29.8947476 C126.209334,29.0067858 126.191838,28.1100756 126.231205,27.2089912 C126.261825,26.469752 126.37118,25.7436354 126.585515,25.0350156 C127.381619,22.4192463 129.039439,20.5995807 131.598344,19.6066382 C132.368203,19.3091928 133.168681,19.1211024 133.986655,19.0161217 C134.782759,18.911141 135.578863,18.8980184 136.374966,18.9636313 C137.499135,19.0554894 138.597058,19.2654509 139.646865,19.6941221 C140.062414,19.8647157 140.46484,20.0615546 140.849769,20.293387 C140.932879,20.3415031 140.976621,20.4071161 140.972247,20.5033484 C140.967872,20.7045614 140.972247,20.9014002 140.972247,21.1026133 C140.972247,21.876846 140.972247,22.6510787 140.972247,23.4253114 C140.972247,23.5127954 140.967872,23.6002793 140.963498,23.6877632 C140.963498,23.7183826 140.906634,23.7402536 140.876014,23.7227568 C140.841021,23.70526 140.810401,23.6921374 140.775408,23.6702664 C140.666053,23.6090277 140.561072,23.5434147 140.451717,23.482176 C139.668736,23.036008 138.846387,22.6773239 137.975922,22.4411173 C137.468515,22.301143 136.956734,22.2092849 136.436205,22.1524204 C136.064398,22.1130526 135.688218,22.0955558 135.316411,22.09993 C134.673404,22.1086784 134.047894,22.2136591 133.444255,22.4192463 C132.433816,22.7604336 131.659583,23.3990663 131.112808,24.3088991 C130.714756,24.9694027 130.465427,25.6823967 130.34295,26.4391326 C130.281711,26.8240619 130.251092,27.2089912 130.233595,27.5939204 C130.198601,28.4206435 130.264214,29.2386182 130.496047,30.0390961 C130.636021,30.5202577 130.841608,30.9751741 131.10406,31.3994711 C131.694576,32.3399233 132.530048,32.9523108 133.601726,33.2410077 C133.986655,33.3459884 134.380333,33.4072272 134.782759,33.4203498 C135.64885,33.4422207 136.501818,33.3766078 137.346038,33.179769 C137.770335,33.0791625 138.185884,32.9391882 138.58831,32.7773429 C139.296929,32.4930202 139.983678,32.1693297 140.648556,31.797523 C140.722917,31.753781 140.801653,31.7187874 140.880388,31.6837939 C140.906634,31.6706713 140.963498,31.7056649 140.963498,31.73191 C140.967872,31.7800262 140.972247,31.8325165 140.972247,31.8806327 C140.972247,32.8035881 140.972247,33.7265435 140.972247,34.6494989 C140.972247,34.719486 140.967872,34.7807248 140.967872,34.8288409 Z" id="Path" fill="#122E4B"/>
            <path d="M119.180001,27.7951335 C119.180001,25.1268738 119.180001,22.4542399 119.180001,19.7859802 C119.180001,19.2610767 119.110014,19.3266896 119.630543,19.3266896 C120.689099,19.3223154 121.752028,19.3266896 122.810584,19.3266896 C122.898068,19.3266896 122.985552,19.335438 123.068661,19.3485606 C123.086158,19.3529348 123.108029,19.37918 123.116778,19.3966767 C123.1299,19.4185477 123.1299,19.4447929 123.134274,19.4666639 C123.138649,19.580393 123.138649,19.6897479 123.138649,19.803477 C123.138649,25.1181254 123.138649,30.4327738 123.138649,35.7474221 C123.138649,35.8698996 123.134274,35.9967513 123.1299,36.1192288 C123.1299,36.1629708 123.07741,36.2154611 123.038042,36.2198353 C122.989926,36.2242095 122.937436,36.2285837 122.889319,36.2285837 C121.730157,36.2285837 120.570995,36.2285837 119.407459,36.2285837 C119.359343,36.2285837 119.306853,36.2285837 119.258737,36.2154611 C119.228117,36.2067127 119.193124,36.167345 119.193124,36.1367256 C119.180001,36.0273707 119.180001,35.9136416 119.180001,35.7999125 C119.180001,34.7894732 119.180001,33.7790339 119.180001,32.7685945 C119.180001,31.1107742 119.180001,29.4529538 119.180001,27.7951335 Z" id="Path" fill="#122E4B"/>
            <path d="M121.144015,16.6321847 C120.570995,16.6234364 120.032969,16.4878363 119.556182,16.1597716 C119.24124,15.9410617 119.000659,15.6611132 118.873807,15.2936807 C118.698839,14.7950223 118.694465,14.2919898 118.856311,13.7889572 C118.956917,13.4740151 119.149382,13.2159375 119.407459,13.0016019 C119.73115,12.7304017 120.102956,12.5554339 120.509757,12.4766984 C121.109022,12.3585951 121.699538,12.3848402 122.276932,12.5991759 C122.736223,12.7697695 123.099281,13.0540923 123.379229,13.4608925 C123.78603,14.051409 123.768533,14.8825063 123.471088,15.4205324 C123.21301,15.8885714 122.836829,16.2166361 122.346919,16.4178491 C121.96199,16.570946 121.559564,16.6453073 121.144015,16.6321847 Z" id="Path" fill="#122E4B"/>
        </g>
    </g>
</svg>