<svg id="e7k9FCIPh3B1" xmlns="http://www.w3.org/2000/svg" xmlns:xlink="http://www.w3.org/1999/xlink" viewBox="0 0 24 24" shape-rendering="geometricPrecision" text-rendering="geometricPrecision" project-id="d9b21898c2b44e789e56dc5560c5e883" export-id="cb0792c9b3234b72a170ba62bba22b28" cached="false"><path d="M0,0h24v24h-24L0,0Z" transform="matrix(-.000099 1-1-.000099 24.001191 0.001191)" fill="none"/><path d="M3.039,4.277L6.943,17.84c.185.837.92,1.516,1.831,1.642l.17.016c.793944.047599,1.551757-.337043,1.982-1.006l.045-.078l1.4-2.072l4.05,4.05c.387671.387889.913596.605821,1.462.605821s1.074329-.217932,1.462-.605821l1.047-1.047c.388-.388.606-.913.606-1.461l-.008-.182c-.042806-.48366-.254514-.936814-.598-1.28l-4.047-4.048l2.103-1.412c.726-.385,1.18-1.278,1.053-2.189-.12626-.909786-.804447-1.645386-1.701-1.845L4.276,3.038c-.349982-.100354-.72685-.002563-.983881.2553s-.353603.635044-.252119.9847l-.001-.001Z" transform="matrix(-.000099 1-1-.000099 23.998895 0.000545)"/></svg>
