<svg id="e4mzKEHnbQF1" xmlns="http://www.w3.org/2000/svg" xmlns:xlink="http://www.w3.org/1999/xlink" shape-rendering="geometricPrecision" text-rendering="geometricPrecision" project-id="9e76ad57f07545a7ba8e27a9a486e147" export-id="b725a5f46d074576bd9dede37cfeed9b" cached="false" viewBox="14.98 54.25 198.02 41.5"><defs><rect id="e4mzKEHnbQF2" width="200" height="200" rx="0" ry="0"/></defs><g><g clip-path="url(#e4mzKEHnbQF47)"><path d="M30.21,69.67l1.62,11.76l5.33-8.9-2.26,9.79l5.75-5.5-2.99,7.26l4.78-3.57c-2.23,6.06-4.16,9.45-12.22,12.21-8.06-2.76-10-6.15-12.22-12.21l4.78,3.57-2.99-7.26l5.75,5.5-2.26-9.79l5.33,8.9l1.6-11.76Z" fill="#fff"/><path d="M21.77,65.72c-2.44,0-3.9-1.31-3.9-3.5v-5.26h2.02v5.17c0,1.28.67,1.98,1.89,1.98c1.25,0,1.91-.67,1.91-1.94v-5.21h2.04v5.22c0,2.19-1.52,3.54-3.96,3.54" fill="#fff"/><path d="M30.28,65.58h-2.83v-8.61h2.87c2.1,0,3.25.81,3.25,2.29c0,.78-.41,1.37-1.18,1.74c1.03.37,1.56,1.05,1.56,2.04.01,1.63-1.29,2.54-3.67,2.54m-.87-1.44h.87c.79,0,1.72-.2,1.72-1.16c0-.99-.95-1.2-1.75-1.2h-.84v2.36Zm0-3.71h.73c.99,0,1.53-.37,1.53-1.04c0-.66-.48-.98-1.45-.98h-.82v2.02h.01Z" fill="#fff"/><path d="M39.63,65.72c-2.79,0-4.59-1.74-4.59-4.44c0-2.67,1.87-4.46,4.64-4.46c1.03,0,1.9.2,2.65.62l.07.04-.3,1.75-.13-.09c-.74-.5-1.44-.73-2.21-.73-1.66,0-2.65,1.07-2.65,2.86c0,1.75,1.02,2.84,2.67,2.84.78,0,1.55-.24,2.35-.72l.13-.08.28,1.64-.06.04c-.81.47-1.83.73-2.85.73" fill="#fff"/><path d="M30.21,94.54c-9.51-2.7-14.06-8.98-14.06-17.93v-21.2h28.11v21.2c0,8.96-4.54,15.24-14.05,17.93M15,54.26v22.49c0,9.45,5.14,16.3,15.21,18.98c10.06-2.68,15.21-9.53,15.21-18.98v-22.49h-30.42Z" fill="#fff"/><path d="M30.21,68.63c2.12,0,2.41.86,4.11.85c1.7.01,1.99-.85,4.11-.85s2.41.86,4.12.85v-1.98c-1.7.01-2-.84-4.12-.84s-2.41.85-4.11.84c-1.71.01-1.99-.84-4.11-.84s-2.41.85-4.11.84c-1.7.01-1.99-.84-4.11-.84s-2.41.85-4.11.84v1.98c1.7.01,1.99-.85,4.11-.85s2.41.86,4.11.85c1.7.01,1.99-.85,4.11-.85" fill="#fff"/><path d="M31.55,72.2c1.02.25,1.51.71,2.77.71c1.7.01,1.99-.85,4.11-.85s2.41.86,4.11.85v-1.98c-1.7.01-1.99-.84-4.11-.84s-2.41.85-4.11.84c-1.37.01-1.83-.54-3.05-.75l.28,2.02Z" fill="#fff"/><path d="M26.09,72.9c1.26.01,1.75-.46,2.77-.7l.28-2.02c-1.22.22-1.68.76-3.05.75-1.7.01-1.99-.84-4.11-.84s-2.41.85-4.12.84v1.97c1.7.01,1.99-.85,4.12-.85c2.12,0,2.41.86,4.11.85" fill="#fff"/><path d="M32.04,75.76c.58.2,1.02.44,1.71.53l1.18-1.98c-.18.03-.39.04-.62.04-1.17.01-1.68-.39-2.56-.64l.29,2.05Z" fill="#fff"/><path d="M37.47,75.55c.28-.04.59-.07.96-.07c2.12,0,2.41.86,4.12.85v-1.98c-1.7.01-2-.84-4.12-.84-.18,0-.34.01-.5.02l-.46,2.02Z" fill="#fff"/><path d="M22.94,75.55l-.47-2.02c-.16-.01-.32-.02-.5-.02-2.12,0-2.41.85-4.12.84v1.98c1.7.01,2-.85,4.12-.85.38-.01.7.02.97.07" fill="#fff"/><path d="M26.66,76.29c.69-.09,1.13-.33,1.71-.53l.28-2.06c-.89.25-1.39.65-2.56.64-.23,0-.43-.01-.62-.04l1.19,1.99Z" fill="#fff"/><polygon points="63.81,65.58 62.32,65.58 62.32,59.3 59.98,59.3 59.98,57.97 66.06,57.97 66.26,59.3 63.81,59.3" fill="#fff"/><polygon points="75.31,65.58 73.82,65.58 73.82,62.3 70.55,62.3 70.55,65.58 69.07,65.58 69.07,57.97 70.55,57.97 70.55,60.94 73.82,60.94 73.82,57.97 75.31,57.97" fill="#fff"/><polygon points="84.44,65.58 79.55,65.58 79.55,57.97 84.34,57.97 84.34,59.29 81.03,59.29 81.03,60.97 83.66,60.97 83.88,62.29 81.03,62.29 81.03,64.26 84.44,64.26" fill="#fff"/><path d="M95.9,65.72c-1.94,0-3.1-1.16-3.1-3.12v-4.63h1.47v4.57c0,1.22.58,1.89,1.64,1.89c1.09,0,1.66-.64,1.66-1.86v-4.6h1.49v4.57c0,2-1.18,3.18-3.16,3.18" fill="#fff"/><polygon points="109.32,65.58 108.04,65.58 104.43,60.25 104.43,65.58 103.07,65.58 103.07,57.97 104.51,57.97 107.96,63.08 107.96,57.97 109.32,57.97" fill="#fff"/><rect width="1.49" height="7.6" rx="0" ry="0" transform="translate(113.55 57.97)" fill="#fff"/><polygon points="122.24,65.69 120.9,65.69 117.97,58.16 119.46,57.83 121.63,63.77 123.75,57.98 125.25,57.98" fill="#fff"/><polygon points="132.94,65.58 128.06,65.58 128.06,57.97 132.84,57.97 132.84,59.29 129.53,59.29 129.53,60.97 132.17,60.97 132.38,62.29 129.53,62.29 129.53,64.26 132.94,64.26" fill="#fff"/><path d="M138.15,61.51h.9c.92,0,1.42-.41,1.42-1.16c0-.9-.77-1.08-1.42-1.08h-.9v2.24Zm2.87,4.16l-2.17-2.98h-.7v2.88h-1.48v-7.6h2.39c1.81,0,2.89.88,2.89,2.37c0,1.04-.52,1.78-1.51,2.15l2.11,2.84-1.53.34Z" fill="#fff"/><path d="M147.96,65.68c-.81,0-1.73-.2-2.59-.56l-.06-.02.22-1.35.09.05c.76.4,1.7.65,2.39.65.84,0,1.38-.37,1.38-.94s-.35-.78-1.42-1.15c-1.59-.56-2.4-1.06-2.4-2.26c0-1.31,1.06-2.22,2.57-2.22.77,0,1.55.16,2.19.45l.05.02-.22,1.38-.09-.05c-.71-.37-1.36-.55-1.98-.55-.66,0-1.16.34-1.16.8c0,.51.35.7,1.52,1.1c1.49.52,2.3,1.04,2.3,2.31.02,1.4-1.11,2.34-2.79,2.34" fill="#fff"/><rect width="1.49" height="7.6" rx="0" ry="0" transform="translate(154.45 57.97)" fill="#fff"/><polygon points="162.63,65.58 161.15,65.58 161.15,59.3 158.81,59.3 158.81,57.97 164.89,57.97 165.09,59.3 162.63,59.3" fill="#fff"/><polygon points="170.59,65.58 169.1,65.58 169.1,62.64 166.38,58.16 167.89,57.83 169.86,61.29 171.78,57.97 173.41,57.97 170.59,62.63" fill="#fff"/><path d="M63.64,74.32c-1.29,0-2.16,1.07-2.16,2.66c0,1.56.91,2.69,2.16,2.69c1.28,0,2.14-1.07,2.14-2.67.01-1.56-.89-2.68-2.14-2.68m0,6.61c-1.82,0-3.66-1.35-3.66-3.94c0-2.6,1.84-3.96,3.66-3.96c1.81,0,3.64,1.35,3.64,3.94.01,2.6-1.82,3.96-3.64,3.96" fill="#fff"/><polygon points="72.18,80.79 70.71,80.79 70.71,73.18 75.37,73.18 75.37,74.5 72.18,74.5 72.18,76.3 74.69,76.3 74.9,77.61 72.18,77.61" fill="#fff"/><path d="M84.84,76.21h.97c.85,0,1.27-.32,1.27-.94c0-.36-.13-.84-1.23-.84h-1.01v1.78Zm0,3.34h1.1c.99,0,1.47-.34,1.47-1.03c0-.73-.49-1.1-1.45-1.1h-1.11v2.13h-.01Zm1.08,1.24h-2.5v-7.6h2.49c1.6,0,2.56.74,2.56,1.97c0,.73-.32,1.27-.95,1.6.85.31,1.29.9,1.29,1.76-.01,1.46-1.03,2.27-2.89,2.27" fill="#fff"/><path d="M93.88,76.72h.89c.92,0,1.42-.41,1.42-1.16c0-.9-.77-1.09-1.42-1.09h-.89v2.25Zm2.85,4.16L94.56,77.9h-.69v2.88h-1.47v-7.6h2.38c1.81,0,2.88.89,2.88,2.37c0,1.04-.52,1.77-1.51,2.15l2.11,2.84-1.53.34Z" fill="#fff"/><rect width="1.49" height="7.6" rx="0" ry="0" transform="translate(101.52 73.18)" fill="#fff"/><polygon points="109.72,80.79 108.23,80.79 108.23,74.51 105.89,74.51 105.89,73.18 111.97,73.18 112.17,74.51 109.72,74.51" fill="#fff"/><rect width="1.49" height="7.6" rx="0" ry="0" transform="translate(114.89 73.18)" fill="#fff"/><path d="M122.52,80.89c-.81,0-1.73-.2-2.59-.56l-.06-.02.22-1.35.09.05c.77.4,1.71.65,2.39.65.84,0,1.38-.37,1.38-.94s-.35-.78-1.42-1.15c-1.59-.56-2.4-1.06-2.4-2.26c0-1.31,1.06-2.22,2.58-2.22.77,0,1.54.16,2.19.45l.06.03-.22,1.38-.09-.05c-.71-.37-1.36-.55-1.98-.55-.66,0-1.16.34-1.16.8c0,.51.34.7,1.52,1.1c1.49.52,2.3,1.04,2.3,2.31c0,1.39-1.13,2.33-2.81,2.33" fill="#fff"/><polygon points="134.8,80.79 133.31,80.79 133.31,77.51 130.04,77.51 130.04,80.79 128.57,80.79 128.57,73.18 130.04,73.18 130.04,76.15 133.31,76.15 133.31,73.18 134.8,73.18" fill="#fff"/><path d="M146.22,80.93c-2.19,0-3.66-1.58-3.66-3.93c0-2.37,1.47-3.97,3.66-3.97.87,0,1.57.18,2.19.58l.04.03-.24,1.39-.1-.07c-.6-.45-1.19-.66-1.85-.66-1.37,0-2.19,1.01-2.19,2.69c0,1.66.85,2.69,2.22,2.69.65,0,1.34-.23,1.97-.68l.1-.07.2,1.3-.04.02c-.66.44-1.47.68-2.3.68" fill="#fff"/><path d="M154.96,74.32c-1.29,0-2.16,1.07-2.16,2.66c0,1.56.91,2.69,2.16,2.69c1.28,0,2.14-1.07,2.14-2.67c0-1.56-.9-2.68-2.14-2.68m0,6.61c-1.82,0-3.66-1.35-3.66-3.94c0-2.6,1.84-3.96,3.66-3.96c1.81,0,3.64,1.35,3.64,3.94c0,2.6-1.83,3.96-3.64,3.96" fill="#fff"/><polygon points="166.36,80.79 161.86,80.79 161.86,73.18 163.33,73.18 163.33,79.49 166.15,79.49" fill="#fff"/><path d="M172.08,80.93c-1.94,0-3.1-1.16-3.1-3.12v-4.63h1.48v4.57c0,1.22.58,1.89,1.64,1.89c1.08,0,1.65-.64,1.65-1.86v-4.6h1.49v4.57c0,1.99-1.18,3.18-3.16,3.18" fill="#fff"/><polygon points="184.07,80.81 182.64,80.81 180.61,75.05 180.19,80.79 178.83,80.79 179.43,73.18 181.44,73.18 183.43,79.01 185.45,73.18 187.41,73.18 188.01,80.79 186.53,80.79 186.1,75.05" fill="#fff"/><path d="M193.4,76.21h.97c.85,0,1.27-.32,1.27-.94c0-.36-.12-.84-1.23-.84h-1.01v1.78Zm0,3.34h1.1c.99,0,1.47-.34,1.47-1.03c0-.73-.49-1.1-1.45-1.1h-1.11v2.13h-.01Zm1.09,1.24h-2.5v-7.6h2.48c1.61,0,2.56.74,2.56,1.97c0,.73-.32,1.27-.95,1.6.85.31,1.29.9,1.29,1.76c0,1.46-1.02,2.27-2.88,2.27" fill="#fff"/><rect width="1.49" height="7.6" rx="0" ry="0" transform="translate(201.1 73.18)" fill="#fff"/><path d="M208.1,77.61h2.21c-.13-.39-.69-1.88-1.1-2.98l-1.11,2.98Zm3.44,3.32l-.74-2.01h-3.19l-.69,1.87h-1.46l3-7.69h1.58L213,80.6l-1.46.33Z" fill="#fff"/><clipPath id="e4mzKEHnbQF47"><use xlink:href="#e4mzKEHnbQF2" transform="translate(14-25)"/></clipPath></g></g></svg>